<svg width="48" height="49" viewBox="0 0 48 49" fill="none" xmlns="http://www.w3.org/2000/svg">
<rect y="0.5" width="48" height="48" rx="12" fill="url(#paint0_linear_39_156)"/>
<g clip-path="url(#clip0_39_156)">
<path d="M30.6563 24.2478L25.98 22.5238L24.2522 17.8438C24.1201 17.4854 23.8813 17.1762 23.568 16.9578C23.2547 16.7394 22.8819 16.6223 22.5 16.6223C22.1181 16.6223 21.7454 16.7394 21.4321 16.9578C21.1187 17.1762 20.8799 17.4854 20.7478 17.8438L19.0238 22.5238L14.3438 24.2478C13.9854 24.3799 13.6762 24.6187 13.4578 24.932C13.2394 25.2454 13.1223 25.6181 13.1223 26C13.1223 26.3819 13.2394 26.7546 13.4578 27.068C13.6762 27.3813 13.9854 27.6201 14.3438 27.7522L19.02 29.4762L20.7478 34.1562C20.8799 34.5146 21.1187 34.8238 21.4321 35.0422C21.7454 35.2606 22.1181 35.3777 22.5 35.3777C22.8819 35.3777 23.2547 35.2606 23.568 35.0422C23.8813 34.8238 24.1201 34.5146 24.2522 34.1562L25.9763 29.48L30.6563 27.7522C31.0146 27.6201 31.3238 27.3813 31.5422 27.068C31.7606 26.7546 31.8777 26.3819 31.8777 26C31.8777 25.6181 31.7606 25.2454 31.5422 24.932C31.3238 24.6187 31.0146 24.3799 30.6563 24.2478ZM24.7144 27.5441C24.5617 27.6003 24.423 27.6891 24.3079 27.8042C24.1928 27.9192 24.1041 28.0579 24.0478 28.2106L22.5 32.4012L20.9559 28.2106C20.8997 28.0579 20.8109 27.9192 20.6958 27.8042C20.5808 27.6891 20.4421 27.6003 20.2894 27.5441L16.0988 26L20.2894 24.4559C20.4421 24.3997 20.5808 24.3109 20.6958 24.1958C20.8109 24.0808 20.8997 23.9421 20.9559 23.7894L22.5 19.5988L24.0441 23.7894C24.1003 23.9421 24.1891 24.0808 24.3042 24.1958C24.4192 24.3109 24.5579 24.3997 24.7106 24.4559L28.9013 26L24.7144 27.5441ZM25.125 16.25C25.125 15.9516 25.2435 15.6655 25.4545 15.4545C25.6655 15.2435 25.9516 15.125 26.25 15.125H27.375V14C27.375 13.7016 27.4935 13.4155 27.7045 13.2045C27.9155 12.9935 28.2016 12.875 28.5 12.875C28.7984 12.875 29.0845 12.9935 29.2955 13.2045C29.5065 13.4155 29.625 13.7016 29.625 14V15.125H30.75C31.0484 15.125 31.3345 15.2435 31.5455 15.4545C31.7565 15.6655 31.875 15.9516 31.875 16.25C31.875 16.5484 31.7565 16.8345 31.5455 17.0455C31.3345 17.2565 31.0484 17.375 30.75 17.375H29.625V18.5C29.625 18.7984 29.5065 19.0845 29.2955 19.2955C29.0845 19.5065 28.7984 19.625 28.5 19.625C28.2016 19.625 27.9155 19.5065 27.7045 19.2955C27.4935 19.0845 27.375 18.7984 27.375 18.5V17.375H26.25C25.9516 17.375 25.6655 17.2565 25.4545 17.0455C25.2435 16.8345 25.125 16.5484 25.125 16.25ZM35.625 20.75C35.625 21.0484 35.5065 21.3345 35.2955 21.5455C35.0845 21.7565 34.7984 21.875 34.5 21.875H34.125V22.25C34.125 22.5484 34.0065 22.8345 33.7955 23.0455C33.5845 23.2565 33.2984 23.375 33 23.375C32.7016 23.375 32.4155 23.2565 32.2045 23.0455C31.9935 22.8345 31.875 22.5484 31.875 22.25V21.875H31.5C31.2016 21.875 30.9155 21.7565 30.7045 21.5455C30.4935 21.3345 30.375 21.0484 30.375 20.75C30.375 20.4516 30.4935 20.1655 30.7045 19.9545C30.9155 19.7435 31.2016 19.625 31.5 19.625H31.875V19.25C31.875 18.9516 31.9935 18.6655 32.2045 18.4545C32.4155 18.2435 32.7016 18.125 33 18.125C33.2984 18.125 33.5845 18.2435 33.7955 18.4545C34.0065 18.6655 34.125 18.9516 34.125 19.25V19.625H34.5C34.7984 19.625 35.0845 19.7435 35.2955 19.9545C35.5065 20.1655 35.625 20.4516 35.625 20.75Z" fill="#1F3632"/>
</g>
<defs>
<linearGradient id="paint0_linear_39_156" x1="24" y1="0.5" x2="24" y2="48.5" gradientUnits="userSpaceOnUse">
<stop stop-color="#1F3632" stop-opacity="0.2"/>
<stop offset="1" stop-color="#1F3632" stop-opacity="0"/>
</linearGradient>
<clipPath id="clip0_39_156">
<rect width="24" height="24" fill="white" transform="translate(12 12.5)"/>
</clipPath>
</defs>
</svg>
