<svg width="48" height="49" viewBox="0 0 48 49" fill="none" xmlns="http://www.w3.org/2000/svg">
<rect y="0.5" width="48" height="48" rx="12" fill="url(#paint0_linear_39_158)"/>
<path d="M34.5459 26.046L31.5459 29.046C31.3346 29.2573 31.0479 29.3761 30.7491 29.3761C30.4502 29.3761 30.1635 29.2573 29.9522 29.046C29.7408 28.8346 29.6221 28.548 29.6221 28.2491C29.6221 27.9502 29.7408 27.6636 29.9522 27.4522L31.0312 26.375H23.7188L19.2188 30.875H21C21.2984 30.875 21.5845 30.9936 21.7955 31.2045C22.0065 31.4155 22.125 31.7017 22.125 32C22.125 32.2984 22.0065 32.5846 21.7955 32.7955C21.5845 33.0065 21.2984 33.125 21 33.125H16.5C16.2016 33.125 15.9155 33.0065 15.7045 32.7955C15.4935 32.5846 15.375 32.2984 15.375 32V27.5C15.375 27.2017 15.4935 26.9155 15.7045 26.7045C15.9155 26.4936 16.2016 26.375 16.5 26.375C16.7984 26.375 17.0845 26.4936 17.2955 26.7045C17.5065 26.9155 17.625 27.2017 17.625 27.5V29.2813L22.125 24.7813V17.4688L21.0459 18.546C20.9413 18.6506 20.8171 18.7336 20.6803 18.7903C20.5436 18.8469 20.3971 18.8761 20.2491 18.8761C19.9502 18.8761 19.6635 18.7573 19.4522 18.546C19.3475 18.4413 19.2645 18.3171 19.2079 18.1804C19.1513 18.0436 19.1221 17.8971 19.1221 17.7491C19.1221 17.4502 19.2408 17.1636 19.4522 16.9522L22.4522 13.9522C22.5567 13.8473 22.6809 13.7641 22.8176 13.7073C22.9544 13.6506 23.101 13.6213 23.2491 13.6213C23.3971 13.6213 23.5437 13.6506 23.6805 13.7073C23.8172 13.7641 23.9414 13.8473 24.0459 13.9522L27.0459 16.9522C27.2573 17.1636 27.376 17.4502 27.376 17.7491C27.376 18.048 27.2573 18.3346 27.0459 18.546C26.8346 18.7573 26.5479 18.8761 26.2491 18.8761C25.9502 18.8761 25.6635 18.7573 25.4522 18.546L24.375 17.4688V24.125H31.0312L29.9513 23.046C29.8466 22.9413 29.7636 22.8171 29.707 22.6804C29.6503 22.5436 29.6212 22.3971 29.6212 22.2491C29.6212 22.1011 29.6503 21.9546 29.707 21.8178C29.7636 21.6811 29.8466 21.5569 29.9513 21.4522C30.1626 21.2409 30.4492 21.1221 30.7481 21.1221C30.8961 21.1221 31.0427 21.1513 31.1794 21.2079C31.3161 21.2646 31.4404 21.3476 31.545 21.4522L34.545 24.4522C34.6499 24.5567 34.7332 24.6808 34.7901 24.8175C34.847 24.9542 34.8763 25.1008 34.8764 25.2489C34.8764 25.397 34.8473 25.5436 34.7906 25.6804C34.7339 25.8172 34.6508 25.9414 34.5459 26.046Z" fill="#1F3632"/>
<defs>
<linearGradient id="paint0_linear_39_158" x1="24" y1="0.5" x2="24" y2="48.5" gradientUnits="userSpaceOnUse">
<stop stop-color="#1F3632" stop-opacity="0.2"/>
<stop offset="1" stop-color="#1F3632" stop-opacity="0"/>
</linearGradient>
</defs>
</svg>
