<svg width="48" height="49" viewBox="0 0 48 49" fill="none" xmlns="http://www.w3.org/2000/svg">
<rect y="0.5" width="48" height="48" rx="12" fill="url(#paint0_linear_39_165)"/>
<path d="M33.6066 18.8282C33.5384 18.6595 33.4302 18.5099 33.2915 18.3922C33.1527 18.2745 32.9875 18.1922 32.8099 18.1524C32.6324 18.1126 32.4479 18.1164 32.2721 18.1635C32.0964 18.2107 31.9347 18.2998 31.801 18.4232L28.1653 21.7813L26.9766 21.5263L26.7188 20.3347L30.0741 16.6991C30.1975 16.5653 30.2865 16.4037 30.3337 16.2279C30.3809 16.0522 30.3847 15.8677 30.3449 15.6901C30.3051 15.5126 30.2228 15.3474 30.1051 15.2086C29.9874 15.0698 29.8378 14.9617 29.6691 14.8935C28.3946 14.3804 26.999 14.2464 25.6501 14.5076C24.3013 14.7688 23.0566 15.4141 22.0657 16.3659C21.0749 17.3176 20.38 18.5353 20.0647 19.8725C19.7494 21.2098 19.8271 22.6096 20.2885 23.9038L14.8988 28.8294C14.8859 28.8406 14.8737 28.8525 14.8622 28.865C14.2378 29.4997 13.8895 30.3554 13.8931 31.2457C13.8967 32.1361 14.252 32.9889 14.8816 33.6185C15.5111 34.2481 16.364 34.6033 17.2543 34.607C18.1447 34.6106 19.0004 34.2623 19.635 33.6378L19.6707 33.6013L24.5963 28.2116C25.8908 28.6742 27.2914 28.7527 28.6295 28.4377C29.9676 28.1226 31.1861 27.4275 32.1382 26.4359C33.0904 25.4443 33.7355 24.1987 33.996 22.8489C34.2566 21.4991 34.1213 20.1028 33.6066 18.8282ZM27 26.375C26.2398 26.3773 25.4897 26.2 24.811 25.8575C24.5918 25.7471 24.3426 25.7113 24.1012 25.7556C23.8599 25.8 23.6396 25.922 23.4741 26.1032L18.0291 32.0619C17.8178 32.2733 17.5311 32.392 17.2322 32.392C16.9333 32.392 16.6467 32.2733 16.4354 32.0619C16.224 31.8506 16.1053 31.5639 16.1053 31.265C16.1053 30.9661 16.224 30.6795 16.4354 30.4682L22.3932 25.0241C22.5743 24.8585 22.6964 24.6383 22.7407 24.3969C22.785 24.1556 22.7493 23.9063 22.6388 23.6872C22.2979 23.0087 22.1219 22.2593 22.125 21.5C22.1265 20.2076 22.6406 18.9684 23.5545 18.0545C24.4685 17.1406 25.7076 16.6265 27 16.625H27.0835L24.6722 19.2378C24.5501 19.3703 24.4616 19.5301 24.4142 19.7038C24.3667 19.8776 24.3616 20.0602 24.3994 20.2363L24.93 22.7066C24.9756 22.9184 25.0813 23.1125 25.2344 23.2657C25.3876 23.4188 25.5817 23.5245 25.7935 23.57L28.2638 24.1007C28.4399 24.1384 28.6225 24.1334 28.7962 24.0859C28.97 24.0384 29.1298 23.9499 29.2622 23.8278L31.875 21.4175C31.875 21.4457 31.875 21.4728 31.875 21.501C31.8733 22.7933 31.3591 24.0322 30.4452 24.9459C29.5313 25.8596 28.2923 26.3735 27 26.375Z" fill="#1F3632"/>
<defs>
<linearGradient id="paint0_linear_39_165" x1="24" y1="0.5" x2="24" y2="48.5" gradientUnits="userSpaceOnUse">
<stop stop-color="#1F3632" stop-opacity="0.2"/>
<stop offset="1" stop-color="#1F3632" stop-opacity="0"/>
</linearGradient>
</defs>
</svg>
