<svg width="1385" height="392" viewBox="0 0 1385 392" fill="none" xmlns="http://www.w3.org/2000/svg">
<path opacity="0.4" d="M0.0703125 281V267.719C10.3568 267.589 16.737 267.198 19.2109 266.547C21.8151 265.766 24.1589 264.398 26.2422 262.445C28.4557 260.362 31.5807 255.089 35.6172 246.625C37.9609 241.807 46.4245 223.513 61.0078 191.742L109.836 81.5859C115.174 69.4766 126.568 42.5234 144.016 0.726562H156.711L240.109 196.625C253.651 228.396 262.635 248.318 267.062 256.391C269.536 260.948 272.206 263.943 275.07 265.375C278.065 266.807 284.706 267.589 294.992 267.719V281C274.68 279.698 260.487 279.047 252.414 279.047L189.523 281V267.719C204.107 267.458 212.961 267.003 216.086 266.352C219.211 265.701 221.294 264.789 222.336 263.617C223.508 262.315 224.094 260.753 224.094 258.93C224.094 256.065 223.182 252.354 221.359 247.797L197.336 188.031H84.25L62.9609 238.227C59.1849 247.211 57.2969 253.786 57.2969 257.953C57.2969 259.776 57.8177 261.273 58.8594 262.445C60.2917 264.138 62.5052 265.31 65.5 265.961C70.3177 267.003 78.7812 267.589 90.8906 267.719V281C68.8854 279.828 52.4141 279.242 41.4766 279.242C28.8464 279.242 15.0443 279.828 0.0703125 281ZM90.8906 171.43H189.523L140.695 53.6562L90.8906 171.43ZM314.727 222.016H326.445C326.576 229.568 326.966 235.557 327.617 239.984C328.268 244.411 329.375 248.773 330.938 253.07C332.5 257.237 334.909 260.818 338.164 263.812C341.419 266.677 344.935 268.956 348.711 270.648C352.617 272.211 356.523 273.253 360.43 273.773C364.466 274.294 370.521 274.555 378.594 274.555C391.875 274.555 402.747 271.039 411.211 264.008C419.805 256.977 424.102 247.341 424.102 235.102C424.102 229.633 422.734 224.815 420 220.648C417.396 216.482 413.555 213.227 408.477 210.883C403.529 208.539 392.786 205.479 376.25 201.703C359.714 197.927 349.036 195.193 344.219 193.5C336.927 190.766 331.133 187.445 326.836 183.539C322.539 179.633 319.089 174.685 316.484 168.695C314.01 162.706 312.773 156.195 312.773 149.164C312.773 138.878 315.443 129.438 320.781 120.844C326.25 112.12 334.779 105.089 346.367 99.75C357.956 94.2812 370.586 91.5469 384.258 91.5469C392.461 91.5469 401.966 92.7188 412.773 95.0625C423.581 97.276 432.37 100.076 439.141 103.461C438.229 117.914 437.578 132.628 437.188 147.602H426.055C425.404 138.096 424.622 131.846 423.711 128.852C422.93 125.857 421.823 123.188 420.391 120.844C418.958 118.5 416.484 116.026 412.969 113.422C409.453 110.688 404.896 108.279 399.297 106.195C393.828 104.112 387.057 103.07 378.984 103.07C367.526 103.07 358.281 106.456 351.25 113.227C344.349 119.997 340.898 127.94 340.898 137.055C340.898 142.133 341.875 146.495 343.828 150.141C345.911 153.786 348.646 156.781 352.031 159.125C355.417 161.339 360.169 163.357 366.289 165.18L398.711 173.188C415.117 177.354 426.38 180.935 432.5 183.93C438.75 186.924 443.763 191.612 447.539 197.992C451.315 204.242 453.203 211.794 453.203 220.648C453.203 238.227 445.911 253.591 431.328 266.742C416.875 279.763 397.474 286.273 373.125 286.273C361.927 286.273 347.018 284.581 328.398 281.195C318.112 279.242 312.578 277.875 311.797 277.094C311.276 276.703 311.016 276.052 311.016 275.141C311.016 274.229 311.146 273.122 311.406 271.82C312.578 266.221 313.359 260.753 313.75 255.414C314.141 250.076 314.466 238.943 314.727 222.016ZM476.258 222.016H487.977C488.107 229.568 488.497 235.557 489.148 239.984C489.799 244.411 490.906 248.773 492.469 253.07C494.031 257.237 496.44 260.818 499.695 263.812C502.951 266.677 506.466 268.956 510.242 270.648C514.148 272.211 518.055 273.253 521.961 273.773C525.997 274.294 532.052 274.555 540.125 274.555C553.406 274.555 564.279 271.039 572.742 264.008C581.336 256.977 585.633 247.341 585.633 235.102C585.633 229.633 584.266 224.815 581.531 220.648C578.927 216.482 575.086 213.227 570.008 210.883C565.06 208.539 554.318 205.479 537.781 201.703C521.245 197.927 510.568 195.193 505.75 193.5C498.458 190.766 492.664 187.445 488.367 183.539C484.07 179.633 480.62 174.685 478.016 168.695C475.542 162.706 474.305 156.195 474.305 149.164C474.305 138.878 476.974 129.438 482.312 120.844C487.781 112.12 496.31 105.089 507.898 99.75C519.487 94.2812 532.117 91.5469 545.789 91.5469C553.992 91.5469 563.497 92.7188 574.305 95.0625C585.112 97.276 593.901 100.076 600.672 103.461C599.76 117.914 599.109 132.628 598.719 147.602H587.586C586.935 138.096 586.154 131.846 585.242 128.852C584.461 125.857 583.354 123.188 581.922 120.844C580.49 118.5 578.016 116.026 574.5 113.422C570.984 110.688 566.427 108.279 560.828 106.195C555.359 104.112 548.589 103.07 540.516 103.07C529.057 103.07 519.812 106.456 512.781 113.227C505.88 119.997 502.43 127.94 502.43 137.055C502.43 142.133 503.406 146.495 505.359 150.141C507.443 153.786 510.177 156.781 513.562 159.125C516.948 161.339 521.701 163.357 527.82 165.18L560.242 173.188C576.648 177.354 587.911 180.935 594.031 183.93C600.281 186.924 605.294 191.612 609.07 197.992C612.846 204.242 614.734 211.794 614.734 220.648C614.734 238.227 607.443 253.591 592.859 266.742C578.406 279.763 559.005 286.273 534.656 286.273C523.458 286.273 508.549 284.581 489.93 281.195C479.643 279.242 474.109 277.875 473.328 277.094C472.807 276.703 472.547 276.052 472.547 275.141C472.547 274.229 472.677 273.122 472.938 271.82C474.109 266.221 474.891 260.753 475.281 255.414C475.672 250.076 475.997 238.943 476.258 222.016ZM628.414 385.492L638.375 355.414H643.062C645.536 357.497 647.62 359.125 649.312 360.297C651.135 361.599 653.023 362.576 654.977 363.227C657.06 363.878 660.055 364.203 663.961 364.203C667.997 364.203 671.904 363.292 675.68 361.469C679.586 359.776 683.167 357.042 686.422 353.266C689.807 349.49 693.779 342.979 698.336 333.734C705.237 319.802 711.422 305.609 716.891 291.156C712.724 279.438 707.711 266.286 701.852 251.703L670.797 174.75C661.552 151.833 654 134.255 648.141 122.016C645.797 117.198 643.258 114.008 640.523 112.445C637.919 110.753 631.995 109.385 622.75 108.344V97.4062C638.896 98.3177 654.846 98.7734 670.602 98.7734C685.966 98.7734 700.745 98.3177 714.938 97.4062V108.344C701.526 109.255 693.844 110.102 691.891 110.883C688.505 112.185 686.812 114.529 686.812 117.914C686.812 119.997 687.919 124.294 690.133 130.805C695.211 146.82 700.029 160.492 704.586 171.82L716.891 202.289C724.312 220.518 730.562 235.297 735.641 246.625L745.992 223.578C750.029 214.464 757.125 197.146 767.281 171.625C777.438 146.104 783.362 130.349 785.055 124.359C785.576 122.276 785.836 120.453 785.836 118.891C785.836 116.417 784.794 114.529 782.711 113.227C780.758 111.794 772.945 110.427 759.273 109.125V97.4062C774.378 98.3177 787.724 98.7734 799.312 98.7734C811.031 98.7734 822.62 98.3177 834.078 97.4062L832.125 109.125C825.484 109.385 820.341 110.818 816.695 113.422C813.049 116.026 807.516 124.815 800.094 139.789C792.802 154.633 779.195 183.93 759.273 227.68L714.156 333.148C706.865 350.206 700.549 362.38 695.211 369.672C689.872 376.964 683.492 382.497 676.07 386.273C668.648 390.049 660.51 391.938 651.656 391.938C647.359 391.938 643.453 391.417 639.938 390.375C636.552 389.464 632.711 387.836 628.414 385.492ZM842.484 281V269.867L861.039 269.672C863.773 269.542 865.857 269.086 867.289 268.305C868.852 267.393 870.023 266.286 870.805 264.984C872.237 262.38 873.148 257.758 873.539 251.117C873.539 249.424 873.93 230.74 874.711 195.062V171.82C874.711 161.404 874.516 150.206 874.125 138.227C873.734 130.544 873.083 125.987 872.172 124.555C871.391 123.122 869.958 122.081 867.875 121.43C865.792 120.648 857.328 120.323 842.484 120.453V109.32C868.786 105.674 887.992 100.922 900.102 95.0625C902.706 93.7604 904.464 93.1094 905.375 93.1094C906.286 93.1094 907.003 93.4349 907.523 94.0859C908.044 94.737 908.305 95.7135 908.305 97.0156C908.305 97.9271 908.24 98.9688 908.109 100.141C907.589 106.391 907.198 115.701 906.938 128.07L932.523 104.633C935.779 101.768 937.797 100.141 938.578 99.75C941.573 98.0573 945.87 96.4948 951.469 95.0625C957.068 93.6302 962.927 92.9141 969.047 92.9141C981.547 92.9141 992.68 95.974 1002.45 102.094C1012.21 108.214 1019.7 117.263 1024.91 129.242L1046.39 109.32C1051.21 104.893 1054.53 102.159 1056.35 101.117C1059.74 99.1641 1064.55 97.3411 1070.8 95.6484C1077.05 93.9557 1083.24 93.1094 1089.36 93.1094C1104.2 93.1094 1116.64 97.0807 1126.66 105.023C1136.69 112.836 1143.14 121.755 1146 131.781C1147.82 138.422 1148.73 152.745 1148.73 174.75V195.062L1149.32 222.211C1149.71 237.966 1149.91 247.211 1149.91 249.945C1150.17 256.456 1150.95 261.208 1152.25 264.203C1152.77 265.375 1153.55 266.417 1154.59 267.328C1155.77 268.109 1157.39 268.76 1159.48 269.281C1160.26 269.411 1167.42 269.607 1180.96 269.867V281C1164.55 280.219 1153.36 279.828 1147.37 279.828C1141.64 279.828 1130.11 280.219 1112.8 281L1114.55 227.094L1115.14 206V189.203C1115.14 167.328 1114.03 152.419 1111.82 144.477C1109.61 136.404 1104.92 129.893 1097.76 124.945C1090.73 119.997 1082.52 117.523 1073.15 117.523C1062.34 117.523 1052.58 120.648 1043.85 126.898C1037.34 131.716 1033.04 137.38 1030.96 143.891C1028.88 150.401 1027.84 163.096 1027.84 181.977V195.062L1028.42 222.211C1028.68 237.966 1028.88 247.211 1029.01 249.945C1029.27 256.456 1030.05 261.208 1031.35 264.203C1031.87 265.375 1032.65 266.417 1033.7 267.328C1034.74 268.109 1036.3 268.76 1038.38 269.281C1039.29 269.411 1046.52 269.607 1060.06 269.867V281C1040.92 279.958 1025.56 279.438 1013.97 279.438C1004.59 279.438 987.536 279.958 962.797 281V269.867L981.352 269.672C984.216 269.542 986.365 269.086 987.797 268.305C989.359 267.393 990.531 266.286 991.312 264.984C992.745 262.38 993.591 257.758 993.852 251.117C993.982 249.424 994.372 230.74 995.023 195.062V179.828C995.023 163.031 993.721 150.792 991.117 143.109C988.513 135.297 983.956 129.112 977.445 124.555C970.935 119.867 963.122 117.523 954.008 117.523C946.195 117.523 938.773 119.216 931.742 122.602C924.841 125.857 919.503 129.958 915.727 134.906C911.951 139.854 909.672 145.128 908.891 150.727C907.589 159.711 906.938 170.518 906.938 183.148V195.062C907.719 228.917 908.109 247.211 908.109 249.945C908.37 256.456 909.151 261.208 910.453 264.203C910.974 265.375 911.755 266.417 912.797 267.328C913.839 268.109 915.466 268.76 917.68 269.281C918.461 269.411 925.622 269.607 939.164 269.867V281C921.195 279.958 905.896 279.438 893.266 279.438C882.068 279.438 865.141 279.958 842.484 281ZM1192.69 191.156C1192.69 161.99 1201.93 138.227 1220.42 119.867C1239.04 101.378 1262.87 92.1328 1291.91 92.1328C1319.25 92.1328 1341.52 100.727 1358.7 117.914C1375.89 135.102 1384.48 157.302 1384.48 184.516C1384.48 203.526 1380.06 220.909 1371.2 236.664C1362.35 252.419 1349.85 264.789 1333.7 273.773C1317.56 282.628 1299.78 287.055 1280.38 287.055C1265.28 287.055 1252.45 284.516 1241.91 279.438C1231.49 274.359 1223.03 267.979 1216.52 260.297C1210.01 252.615 1205.06 244.737 1201.67 236.664C1195.68 222.471 1192.69 207.302 1192.69 191.156ZM1229.6 176.703C1229.6 192.719 1232.27 208.995 1237.61 225.531C1242.95 242.068 1250.63 254.177 1260.66 261.859C1270.81 269.411 1281.82 273.188 1293.66 273.188C1308.77 273.188 1321.4 267.198 1331.55 255.219C1341.71 243.24 1346.79 224.815 1346.79 199.945C1346.79 179.242 1343.73 161.404 1337.61 146.43C1331.62 131.326 1323.94 120.714 1314.56 114.594C1305.19 108.344 1294.84 105.219 1283.51 105.219C1267.49 105.219 1254.47 111.013 1244.45 122.602C1234.55 134.19 1229.6 152.224 1229.6 176.703Z" fill="#1F3632"/>
</svg>
